<?xml version="1.0" encoding="utf-8"?>
<!-- Generator: Adobe Illustrator 23.0.1, SVG Export Plug-In . SVG Version: 6.00 Build 0)  -->
<svg version="1.1" id="Capa_1" xmlns="http://www.w3.org/2000/svg" xmlns:xlink="http://www.w3.org/1999/xlink" x="0px" y="0px"
	 viewBox="0 0 512 288" style="enable-background:new 0 0 512 288;" xml:space="preserve">
<style type="text/css">
	.st0{fill:#FFFFFF;}
</style>
<g>
	<g>
		<path class="st0" d="M256-0.16c-97.82,0-186.53,50.53-251.99,132.61c-5.34,6.72-5.34,16.12,0,22.84
			C69.47,237.47,158.18,288,256,288s186.53-50.53,251.99-132.61c5.34-6.72,5.34-16.12,0-22.84C442.53,50.37,353.82-0.16,256-0.16z
			 M263.02,245.38c-64.94,3.86-118.56-46.68-114.48-108.09c3.35-50.63,46.82-91.67,100.44-94.83
			c64.94-3.86,118.56,46.68,114.48,108.09C360,201.08,316.54,242.12,263.02,245.38z M259.77,198.51
			c-34.98,2.08-63.89-25.12-61.58-58.15c1.78-27.29,25.24-49.35,54.15-51.13c34.98-2.08,63.89,25.12,61.58,58.15
			C312.03,174.77,288.57,196.82,259.77,198.51z"/>
	</g>
</g>
</svg>
